<?xml version="1.0" encoding="UTF-8" standalone="no"?>
<svg
   xmlns:dc="http://purl.org/dc/elements/1.1/"
   xmlns:cc="http://creativecommons.org/ns#"
   xmlns:rdf="http://www.w3.org/1999/02/22-rdf-syntax-ns#"
   xmlns:svg="http://www.w3.org/2000/svg"
   xmlns="http://www.w3.org/2000/svg"
   xmlns:sodipodi="http://sodipodi.sourceforge.net/DTD/sodipodi-0.dtd"
   xmlns:inkscape="http://www.inkscape.org/namespaces/inkscape"
   width="1792"
   height="1792"
   viewBox="0 0 1792 1792"
   id="svg3384"
   version="1.1"
   inkscape:version="0.91 r13725"
   sodipodi:docname="rp2spot-play-o.svg">
  <metadata
     id="metadata3392">
    <rdf:RDF>
      <cc:Work
         rdf:about="">
        <dc:format>image/svg+xml</dc:format>
        <dc:type
           rdf:resource="http://purl.org/dc/dcmitype/StillImage" />
        <dc:title></dc:title>
      </cc:Work>
    </rdf:RDF>
  </metadata>
  <defs
     id="defs3390" />
  <sodipodi:namedview
     pagecolor="#ffffff"
     bordercolor="#666666"
     borderopacity="1"
     objecttolerance="10"
     gridtolerance="10"
     guidetolerance="10"
     inkscape:pageopacity="0"
     inkscape:pageshadow="2"
     inkscape:window-width="1587"
     inkscape:window-height="1022"
     id="namedview3388"
     showgrid="false"
     inkscape:zoom="0.48270089"
     inkscape:cx="510.54762"
     inkscape:cy="896"
     inkscape:window-x="0"
     inkscape:window-y="0"
     inkscape:window-maximized="0"
     inkscape:current-layer="svg3384" />
  <path
     d="m 1312,896 c 0,24.66667 -10.6667,43 -32,55 l -544,320 c -10,6 -20.66667,9 -32,9 -10.66667,0 -21.33333,-2.6667 -32,-8 -21.33333,-12.6667 -32,-31.3333 -32,-56 l 0,-640 c 0,-24.66667 10.66667,-43.33333 32,-56 22,-12 43.33333,-11.66667 64,1 l 544,320 c 21.3333,12 32,30.33333 32,55 z m 299.9491,-10e-6 c 0,-123.94741 -33.9664,-251.86595 -95.796,-359.29063 -61.1889,-106.31157 -153.652,-199.16475 -259.8304,-260.58443 -107.0211,-61.90712 -234.6145,-96.07406 -358.25102,-96.07406 -123.63657,0 -251.22994,34.16694 -358.25101,96.07406 -106.1784,61.41968 -198.64149,154.27286 -259.83039,260.58443 -61.82959,107.42468 -95.79606,235.34322 -95.79606,359.29063 0,123.94741 33.96648,251.86591 95.79606,359.29061 61.18891,106.3116 153.65197,199.1648 259.83039,260.5845 107.02107,61.9071 234.61444,96.074 358.25101,96.074 123.63652,0 251.22992,-34.1669 358.25102,-96.074 106.1784,-61.4197 198.6415,-154.2729 259.8304,-260.5845 61.8295,-107.4247 95.796,-235.3432 95.796,-359.29061 z M 1664,896 c 0,139.3333 -34.3333,267.8333 -103,385.5 -68.6667,117.6667 -161.8333,210.8333 -279.5,279.5 -117.6667,68.6667 -246.1667,103 -385.5,103 -139.33333,0 -267.83333,-34.3333 -385.5,-103 C 392.83333,1492.3333 299.66667,1399.1667 231,1281.5 162.33333,1163.8333 128,1035.3333 128,896 128,756.66667 162.33333,628.16667 231,510.5 299.66667,392.83333 392.83333,299.66667 510.5,231 628.16667,162.33333 756.66667,128 896,128 c 139.3333,0 267.8333,34.33333 385.5,103 117.6667,68.66667 210.8333,161.83333 279.5,279.5 68.6667,117.66667 103,246.16667 103,385.5 z"
     id="path3386"
     inkscape:connector-curvature="0"
     sodipodi:nodetypes="sccscsscccsaaaaaaaaaaaaasssssssssssss" />
</svg>
